<svg width="50" height="50" viewBox="0 0 50 50" fill="none" xmlns="http://www.w3.org/2000/svg">
<path d="M18.1211 28.5098H23.377C23.2715 30.2324 22.7969 31.7617 21.9531 33.0977C21.1211 34.4336 19.9551 35.4766 18.4551 36.2266C16.9668 36.9766 15.1738 37.3516 13.0762 37.3516C11.4355 37.3516 9.96484 37.0703 8.66406 36.5078C7.36328 35.9336 6.25 35.1133 5.32422 34.0469C4.41016 32.9805 3.71289 31.6914 3.23242 30.1797C2.75195 28.668 2.51172 26.9746 2.51172 25.0996V23.3242C2.51172 21.4492 2.75781 19.7559 3.25 18.2441C3.75391 16.7207 4.46875 15.4258 5.39453 14.3594C6.33203 13.293 7.45117 12.4727 8.75195 11.8984C10.0527 11.3242 11.5059 11.0371 13.1113 11.0371C15.2441 11.0371 17.043 11.4238 18.5078 12.1973C19.9844 12.9707 21.127 14.0371 21.9355 15.3965C22.7559 16.7559 23.248 18.3027 23.4121 20.0371H18.1387C18.0801 19.0059 17.875 18.1328 17.5234 17.418C17.1719 16.6914 16.6387 16.1465 15.9238 15.7832C15.2207 15.4082 14.2832 15.2207 13.1113 15.2207C12.2324 15.2207 11.4648 15.3848 10.8086 15.7129C10.1523 16.041 9.60156 16.5391 9.15625 17.207C8.71094 17.875 8.37695 18.7188 8.1543 19.7383C7.94336 20.7461 7.83789 21.9297 7.83789 23.2891V25.0996C7.83789 26.4238 7.9375 27.5898 8.13672 28.5977C8.33594 29.5938 8.64062 30.4375 9.05078 31.1289C9.47266 31.8086 10.0117 32.3242 10.668 32.6758C11.3359 33.0156 12.1387 33.1855 13.0762 33.1855C14.1777 33.1855 15.0859 33.0098 15.8008 32.6582C16.5156 32.3066 17.0605 31.7852 17.4355 31.0938C17.8223 30.4023 18.0508 29.541 18.1211 28.5098Z" fill="#B41C1C"/>
<path d="M27.2852 11.4062H36.8301C38.7871 11.4062 40.4688 11.6992 41.875 12.2852C43.293 12.8711 44.3828 13.7383 45.1445 14.8867C45.9062 16.0352 46.2871 17.4473 46.2871 19.123C46.2871 20.4941 46.0527 21.6719 45.584 22.6562C45.127 23.6289 44.4766 24.4434 43.6328 25.0996C42.8008 25.7441 41.8223 26.2598 40.6973 26.6465L39.0273 27.5254H30.7305L30.6953 23.4121H36.8652C37.791 23.4121 38.5586 23.248 39.168 22.9199C39.7773 22.5918 40.2344 22.1348 40.5391 21.5488C40.8555 20.9629 41.0137 20.2832 41.0137 19.5098C41.0137 18.6895 40.8613 17.9805 40.5566 17.3828C40.252 16.7852 39.7891 16.3281 39.168 16.0117C38.5469 15.6953 37.7676 15.5371 36.8301 15.5371H32.5586V37H27.2852V11.4062ZM41.5938 37L35.7578 25.5918L41.3301 25.5566L47.2363 36.7539V37H41.5938Z" fill="#B41C1C"/>
</svg>
